<mxfile host="Electron" agent="Mozilla/5.0 (Macintosh; Intel Mac OS X 10_15_7) AppleWebKit/537.36 (KHTML, like Gecko) draw.io/24.7.5 Chrome/126.0.6478.183 Electron/31.3.0 Safari/537.36" version="24.7.5">
  <diagram name="Page-1" id="cAfjxXGKAz49DJFjGk6Y">
    <mxGraphModel dx="682" dy="471" grid="1" gridSize="10" guides="1" tooltips="1" connect="1" arrows="1" fold="1" page="1" pageScale="1" pageWidth="850" pageHeight="1100" math="0" shadow="0">
      <root>
        <mxCell id="0" />
        <mxCell id="1" parent="0" />
        <mxCell id="Ek8R2auzuuWv3KdGHOXG-2" value="Start" style="ellipse;whiteSpace=wrap;html=1;fillColor=#f5f5f5;strokeColor=#666666;gradientColor=#b3b3b3;" parent="1" vertex="1">
          <mxGeometry x="370" y="200" width="60" height="30" as="geometry" />
        </mxCell>
        <mxCell id="Ek8R2auzuuWv3KdGHOXG-3" value="End" style="ellipse;whiteSpace=wrap;html=1;fillColor=#f5f5f5;strokeColor=#666666;gradientColor=#b3b3b3;" parent="1" vertex="1">
          <mxGeometry x="370" y="420" width="60" height="30" as="geometry" />
        </mxCell>
        <mxCell id="Ek8R2auzuuWv3KdGHOXG-4" value="Task 1" style="rounded=1;whiteSpace=wrap;html=1;fillColor=#f8cecc;gradientColor=#ea6b66;strokeColor=#b85450;" parent="1" vertex="1">
          <mxGeometry x="370" y="260" width="60" height="20" as="geometry" />
        </mxCell>
        <mxCell id="Ek8R2auzuuWv3KdGHOXG-5" value="Task 3" style="rounded=1;whiteSpace=wrap;html=1;fillColor=#f8cecc;gradientColor=#ea6b66;strokeColor=#b85450;" parent="1" vertex="1">
          <mxGeometry x="330" y="380" width="60" height="20" as="geometry" />
        </mxCell>
        <mxCell id="Ek8R2auzuuWv3KdGHOXG-6" value="Task 2" style="rounded=1;whiteSpace=wrap;html=1;fillColor=#f8cecc;gradientColor=#ea6b66;strokeColor=#b85450;" parent="1" vertex="1">
          <mxGeometry x="410" y="380" width="60" height="20" as="geometry" />
        </mxCell>
        <mxCell id="Ek8R2auzuuWv3KdGHOXG-7" value="" style="endArrow=classic;html=1;rounded=0;exitX=0.5;exitY=1;exitDx=0;exitDy=0;entryX=0.5;entryY=0;entryDx=0;entryDy=0;" parent="1" source="Ek8R2auzuuWv3KdGHOXG-2" target="Ek8R2auzuuWv3KdGHOXG-4" edge="1">
          <mxGeometry width="50" height="50" relative="1" as="geometry">
            <mxPoint x="410" y="390" as="sourcePoint" />
            <mxPoint x="440" y="260" as="targetPoint" />
          </mxGeometry>
        </mxCell>
        <mxCell id="Ek8R2auzuuWv3KdGHOXG-8" value="" style="endArrow=classic;html=1;rounded=0;exitX=0.705;exitY=0.997;exitDx=0;exitDy=0;exitPerimeter=0;entryX=0.5;entryY=0;entryDx=0;entryDy=0;endFill=1;startArrow=none;startFill=0;" parent="1" source="Ek8R2auzuuWv3KdGHOXG-4" target="Ek8R2auzuuWv3KdGHOXG-6" edge="1">
          <mxGeometry width="50" height="50" relative="1" as="geometry">
            <mxPoint x="410" y="390" as="sourcePoint" />
            <mxPoint x="460" y="340" as="targetPoint" />
          </mxGeometry>
        </mxCell>
        <mxCell id="Ek8R2auzuuWv3KdGHOXG-9" value="" style="endArrow=classic;html=1;rounded=0;exitX=0.25;exitY=1;exitDx=0;exitDy=0;entryX=0.5;entryY=0;entryDx=0;entryDy=0;startArrow=none;startFill=0;endFill=1;" parent="1" source="Ek8R2auzuuWv3KdGHOXG-4" target="Ek8R2auzuuWv3KdGHOXG-5" edge="1">
          <mxGeometry width="50" height="50" relative="1" as="geometry">
            <mxPoint x="410" y="390" as="sourcePoint" />
            <mxPoint x="380" y="370" as="targetPoint" />
          </mxGeometry>
        </mxCell>
        <mxCell id="Ek8R2auzuuWv3KdGHOXG-10" value="" style="endArrow=none;html=1;rounded=0;exitX=0.767;exitY=0.081;exitDx=0;exitDy=0;entryX=0.5;entryY=1;entryDx=0;entryDy=0;endFill=0;startArrow=classic;startFill=1;exitPerimeter=0;" parent="1" source="Ek8R2auzuuWv3KdGHOXG-3" target="Ek8R2auzuuWv3KdGHOXG-6" edge="1">
          <mxGeometry width="50" height="50" relative="1" as="geometry">
            <mxPoint x="410" y="390" as="sourcePoint" />
            <mxPoint x="460" y="340" as="targetPoint" />
          </mxGeometry>
        </mxCell>
        <mxCell id="Ek8R2auzuuWv3KdGHOXG-11" value="" style="endArrow=classic;html=1;rounded=0;exitX=0.5;exitY=1;exitDx=0;exitDy=0;entryX=0.208;entryY=0.117;entryDx=0;entryDy=0;entryPerimeter=0;" parent="1" source="Ek8R2auzuuWv3KdGHOXG-5" target="Ek8R2auzuuWv3KdGHOXG-3" edge="1">
          <mxGeometry width="50" height="50" relative="1" as="geometry">
            <mxPoint x="410" y="390" as="sourcePoint" />
            <mxPoint x="420" y="440" as="targetPoint" />
          </mxGeometry>
        </mxCell>
        <mxCell id="Ek8R2auzuuWv3KdGHOXG-13" value="&lt;font style=&quot;font-size: 10px;&quot;&gt;Command 3.1&lt;/font&gt;" style="rounded=1;whiteSpace=wrap;html=1;dashed=1;fillColor=#d5e8d4;gradientColor=#97d077;strokeColor=#82b366;" parent="1" vertex="1">
          <mxGeometry x="210" y="260" width="70" height="20" as="geometry" />
        </mxCell>
        <mxCell id="Ek8R2auzuuWv3KdGHOXG-14" value="&lt;font style=&quot;font-size: 10px;&quot;&gt;Command 3.2&lt;/font&gt;" style="rounded=1;whiteSpace=wrap;html=1;dashed=1;fillColor=#d5e8d4;gradientColor=#97d077;strokeColor=#82b366;" parent="1" vertex="1">
          <mxGeometry x="210" y="400" width="70" height="20" as="geometry" />
        </mxCell>
        <mxCell id="Ek8R2auzuuWv3KdGHOXG-15" value="" style="endArrow=classic;html=1;rounded=0;exitX=0.5;exitY=1;exitDx=0;exitDy=0;entryX=0.5;entryY=0;entryDx=0;entryDy=0;" parent="1" source="Ek8R2auzuuWv3KdGHOXG-13" target="Ek8R2auzuuWv3KdGHOXG-14" edge="1">
          <mxGeometry width="50" height="50" relative="1" as="geometry">
            <mxPoint x="275" y="415" as="sourcePoint" />
            <mxPoint x="345" y="335" as="targetPoint" />
          </mxGeometry>
        </mxCell>
        <mxCell id="Ek8R2auzuuWv3KdGHOXG-20" value="&lt;font style=&quot;font-size: 10px;&quot;&gt;Start 3&lt;/font&gt;" style="ellipse;whiteSpace=wrap;html=1;fillColor=#f5f5f5;strokeColor=#666666;gradientColor=#b3b3b3;" parent="1" vertex="1">
          <mxGeometry x="220" y="220" width="50" height="20" as="geometry" />
        </mxCell>
        <mxCell id="Ek8R2auzuuWv3KdGHOXG-21" value="" style="endArrow=classic;html=1;rounded=0;exitX=0.5;exitY=1;exitDx=0;exitDy=0;entryX=0.5;entryY=0;entryDx=0;entryDy=0;" parent="1" source="Ek8R2auzuuWv3KdGHOXG-20" target="Ek8R2auzuuWv3KdGHOXG-13" edge="1">
          <mxGeometry width="50" height="50" relative="1" as="geometry">
            <mxPoint x="425" y="310" as="sourcePoint" />
            <mxPoint x="245" y="240" as="targetPoint" />
          </mxGeometry>
        </mxCell>
        <mxCell id="Ek8R2auzuuWv3KdGHOXG-22" value="&lt;font style=&quot;font-size: 10px;&quot;&gt;End 3&lt;/font&gt;" style="ellipse;whiteSpace=wrap;html=1;fillColor=#f5f5f5;strokeColor=#666666;gradientColor=#b3b3b3;" parent="1" vertex="1">
          <mxGeometry x="220" y="440" width="50" height="20" as="geometry" />
        </mxCell>
        <mxCell id="Ek8R2auzuuWv3KdGHOXG-23" value="" style="endArrow=classic;html=1;rounded=0;entryX=0.5;entryY=0;entryDx=0;entryDy=0;exitX=0.5;exitY=1;exitDx=0;exitDy=0;" parent="1" source="Ek8R2auzuuWv3KdGHOXG-14" target="Ek8R2auzuuWv3KdGHOXG-22" edge="1">
          <mxGeometry width="50" height="50" relative="1" as="geometry">
            <mxPoint x="315" y="410" as="sourcePoint" />
            <mxPoint x="255" y="370" as="targetPoint" />
          </mxGeometry>
        </mxCell>
        <mxCell id="Ek8R2auzuuWv3KdGHOXG-25" value="&lt;font style=&quot;font-size: 10px;&quot;&gt;Command 1.1&lt;/font&gt;" style="rounded=1;whiteSpace=wrap;html=1;dashed=1;fillColor=#d5e8d4;gradientColor=#97d077;strokeColor=#82b366;" parent="1" vertex="1">
          <mxGeometry x="560" y="260" width="70" height="20" as="geometry" />
        </mxCell>
        <mxCell id="Ek8R2auzuuWv3KdGHOXG-27" value="" style="endArrow=classic;html=1;rounded=0;exitX=0.5;exitY=1;exitDx=0;exitDy=0;entryX=0.5;entryY=0;entryDx=0;entryDy=0;" parent="1" source="Ek8R2auzuuWv3KdGHOXG-25" target="Ek8R2auzuuWv3KdGHOXG-30" edge="1">
          <mxGeometry width="50" height="50" relative="1" as="geometry">
            <mxPoint x="625" y="355" as="sourcePoint" />
            <mxPoint x="595" y="300" as="targetPoint" />
          </mxGeometry>
        </mxCell>
        <mxCell id="Ek8R2auzuuWv3KdGHOXG-28" value="&lt;font style=&quot;font-size: 10px;&quot;&gt;Start 1&lt;/font&gt;" style="ellipse;whiteSpace=wrap;html=1;fillColor=#f5f5f5;strokeColor=#666666;gradientColor=#b3b3b3;" parent="1" vertex="1">
          <mxGeometry x="570" y="220" width="50" height="20" as="geometry" />
        </mxCell>
        <mxCell id="Ek8R2auzuuWv3KdGHOXG-29" value="" style="endArrow=classic;html=1;rounded=0;exitX=0.5;exitY=1;exitDx=0;exitDy=0;" parent="1" source="Ek8R2auzuuWv3KdGHOXG-28" target="Ek8R2auzuuWv3KdGHOXG-25" edge="1">
          <mxGeometry width="50" height="50" relative="1" as="geometry">
            <mxPoint x="775" y="330" as="sourcePoint" />
            <mxPoint x="825" y="280" as="targetPoint" />
          </mxGeometry>
        </mxCell>
        <mxCell id="Ek8R2auzuuWv3KdGHOXG-30" value="&lt;font style=&quot;font-size: 10px;&quot;&gt;End 1&lt;/font&gt;" style="ellipse;whiteSpace=wrap;html=1;fillColor=#f5f5f5;strokeColor=#666666;gradientColor=#b3b3b3;" parent="1" vertex="1">
          <mxGeometry x="570" y="300" width="50" height="20" as="geometry" />
        </mxCell>
        <mxCell id="Ek8R2auzuuWv3KdGHOXG-39" value="&lt;font style=&quot;font-size: 10px;&quot;&gt;Command 2.1&lt;/font&gt;" style="rounded=1;whiteSpace=wrap;html=1;dashed=1;fillColor=#d5e8d4;gradientColor=#97d077;strokeColor=#82b366;" parent="1" vertex="1">
          <mxGeometry x="520" y="380" width="70" height="20" as="geometry" />
        </mxCell>
        <mxCell id="Ek8R2auzuuWv3KdGHOXG-40" value="" style="endArrow=classic;html=1;rounded=0;exitX=0.5;exitY=1;exitDx=0;exitDy=0;entryX=0.249;entryY=0.182;entryDx=0;entryDy=0;entryPerimeter=0;" parent="1" source="Ek8R2auzuuWv3KdGHOXG-39" target="Ek8R2auzuuWv3KdGHOXG-43" edge="1">
          <mxGeometry width="50" height="50" relative="1" as="geometry">
            <mxPoint x="580" y="475" as="sourcePoint" />
            <mxPoint x="550" y="420" as="targetPoint" />
          </mxGeometry>
        </mxCell>
        <mxCell id="Ek8R2auzuuWv3KdGHOXG-41" value="&lt;font style=&quot;font-size: 10px;&quot;&gt;Start 2&lt;/font&gt;" style="ellipse;whiteSpace=wrap;html=1;fillColor=#f5f5f5;strokeColor=#666666;gradientColor=#b3b3b3;" parent="1" vertex="1">
          <mxGeometry x="570" y="340" width="50" height="20" as="geometry" />
        </mxCell>
        <mxCell id="Ek8R2auzuuWv3KdGHOXG-42" value="" style="endArrow=classic;html=1;rounded=0;exitX=0.251;exitY=0.912;exitDx=0;exitDy=0;exitPerimeter=0;entryX=0.5;entryY=0;entryDx=0;entryDy=0;" parent="1" source="Ek8R2auzuuWv3KdGHOXG-41" target="Ek8R2auzuuWv3KdGHOXG-39" edge="1">
          <mxGeometry width="50" height="50" relative="1" as="geometry">
            <mxPoint x="730" y="450" as="sourcePoint" />
            <mxPoint x="780" y="400" as="targetPoint" />
          </mxGeometry>
        </mxCell>
        <mxCell id="Ek8R2auzuuWv3KdGHOXG-43" value="&lt;font style=&quot;font-size: 10px;&quot;&gt;End 2&lt;/font&gt;" style="ellipse;whiteSpace=wrap;html=1;fillColor=#f5f5f5;strokeColor=#666666;gradientColor=#b3b3b3;" parent="1" vertex="1">
          <mxGeometry x="570" y="420" width="50" height="20" as="geometry" />
        </mxCell>
        <mxCell id="Ek8R2auzuuWv3KdGHOXG-44" value="&lt;font style=&quot;font-size: 10px;&quot;&gt;Command 2.2&lt;/font&gt;" style="rounded=1;whiteSpace=wrap;html=1;dashed=1;fillColor=#d5e8d4;gradientColor=#97d077;strokeColor=#82b366;" parent="1" vertex="1">
          <mxGeometry x="600" y="380" width="70" height="20" as="geometry" />
        </mxCell>
        <mxCell id="Ek8R2auzuuWv3KdGHOXG-45" value="" style="endArrow=classic;html=1;rounded=0;entryX=0.5;entryY=0;entryDx=0;entryDy=0;exitX=1;exitY=1;exitDx=0;exitDy=0;" parent="1" source="Ek8R2auzuuWv3KdGHOXG-41" target="Ek8R2auzuuWv3KdGHOXG-44" edge="1">
          <mxGeometry width="50" height="50" relative="1" as="geometry">
            <mxPoint x="660" y="340" as="sourcePoint" />
            <mxPoint x="450" y="310" as="targetPoint" />
          </mxGeometry>
        </mxCell>
        <mxCell id="Ek8R2auzuuWv3KdGHOXG-47" value="" style="endArrow=classic;html=1;rounded=0;exitX=0.5;exitY=1;exitDx=0;exitDy=0;entryX=1;entryY=0;entryDx=0;entryDy=0;" parent="1" source="Ek8R2auzuuWv3KdGHOXG-44" target="Ek8R2auzuuWv3KdGHOXG-43" edge="1">
          <mxGeometry width="50" height="50" relative="1" as="geometry">
            <mxPoint x="400" y="360" as="sourcePoint" />
            <mxPoint x="650" y="430" as="targetPoint" />
          </mxGeometry>
        </mxCell>
        <mxCell id="Ek8R2auzuuWv3KdGHOXG-59" value="" style="shape=flexArrow;endArrow=classic;html=1;rounded=0;" parent="1" edge="1">
          <mxGeometry width="50" height="50" relative="1" as="geometry">
            <mxPoint x="440" y="270" as="sourcePoint" />
            <mxPoint x="550" y="270" as="targetPoint" />
          </mxGeometry>
        </mxCell>
        <mxCell id="Ek8R2auzuuWv3KdGHOXG-60" value="" style="shape=flexArrow;endArrow=classic;html=1;rounded=0;" parent="1" edge="1">
          <mxGeometry width="50" height="50" relative="1" as="geometry">
            <mxPoint x="480" y="389.75" as="sourcePoint" />
            <mxPoint x="510" y="390" as="targetPoint" />
          </mxGeometry>
        </mxCell>
        <mxCell id="Ek8R2auzuuWv3KdGHOXG-61" value="" style="shape=flexArrow;endArrow=classic;html=1;rounded=0;" parent="1" edge="1">
          <mxGeometry width="50" height="50" relative="1" as="geometry">
            <mxPoint x="320" y="390" as="sourcePoint" />
            <mxPoint x="290" y="390" as="targetPoint" />
          </mxGeometry>
        </mxCell>
        <mxCell id="Ek8R2auzuuWv3KdGHOXG-62" value="&lt;font style=&quot;font-size: 10px;&quot;&gt;Action 2.1.1&lt;/font&gt;" style="rounded=1;whiteSpace=wrap;html=1;dashed=1;fillColor=#dae8fc;gradientColor=#7ea6e0;strokeColor=#6c8ebf;" parent="1" vertex="1">
          <mxGeometry x="720" y="380" width="60" height="20" as="geometry" />
        </mxCell>
        <mxCell id="Ek8R2auzuuWv3KdGHOXG-63" value="" style="endArrow=classic;html=1;rounded=0;exitX=0.5;exitY=1;exitDx=0;exitDy=0;entryX=0.5;entryY=0;entryDx=0;entryDy=0;" parent="1" source="Ek8R2auzuuWv3KdGHOXG-62" target="Ek8R2auzuuWv3KdGHOXG-66" edge="1">
          <mxGeometry width="50" height="50" relative="1" as="geometry">
            <mxPoint x="790" y="475" as="sourcePoint" />
            <mxPoint x="760" y="420" as="targetPoint" />
          </mxGeometry>
        </mxCell>
        <mxCell id="Ek8R2auzuuWv3KdGHOXG-64" value="&lt;font style=&quot;font-size: 10px;&quot;&gt;Start 2.1&lt;/font&gt;" style="ellipse;whiteSpace=wrap;html=1;fillColor=#f5f5f5;strokeColor=#666666;gradientColor=#b3b3b3;" parent="1" vertex="1">
          <mxGeometry x="725" y="340" width="50" height="20" as="geometry" />
        </mxCell>
        <mxCell id="Ek8R2auzuuWv3KdGHOXG-65" value="" style="endArrow=classic;html=1;rounded=0;exitX=0.5;exitY=1;exitDx=0;exitDy=0;" parent="1" source="Ek8R2auzuuWv3KdGHOXG-64" target="Ek8R2auzuuWv3KdGHOXG-62" edge="1">
          <mxGeometry width="50" height="50" relative="1" as="geometry">
            <mxPoint x="940" y="450" as="sourcePoint" />
            <mxPoint x="990" y="400" as="targetPoint" />
          </mxGeometry>
        </mxCell>
        <mxCell id="Ek8R2auzuuWv3KdGHOXG-66" value="&lt;font style=&quot;font-size: 10px;&quot;&gt;End 2.2&lt;/font&gt;" style="ellipse;whiteSpace=wrap;html=1;fillColor=#f5f5f5;strokeColor=#666666;gradientColor=#b3b3b3;" parent="1" vertex="1">
          <mxGeometry x="725" y="420" width="50" height="20" as="geometry" />
        </mxCell>
        <mxCell id="Ek8R2auzuuWv3KdGHOXG-67" value="&lt;font style=&quot;font-size: 10px;&quot;&gt;Action 2.2.1&lt;/font&gt;" style="rounded=1;whiteSpace=wrap;html=1;dashed=1;fillColor=#dae8fc;gradientColor=#7ea6e0;strokeColor=#6c8ebf;" parent="1" vertex="1">
          <mxGeometry x="790" y="380" width="60" height="20" as="geometry" />
        </mxCell>
        <mxCell id="Ek8R2auzuuWv3KdGHOXG-68" value="" style="endArrow=classic;html=1;rounded=0;exitX=0.5;exitY=1;exitDx=0;exitDy=0;entryX=0.5;entryY=0;entryDx=0;entryDy=0;" parent="1" source="Ek8R2auzuuWv3KdGHOXG-67" target="Ek8R2auzuuWv3KdGHOXG-71" edge="1">
          <mxGeometry width="50" height="50" relative="1" as="geometry">
            <mxPoint x="870" y="475" as="sourcePoint" />
            <mxPoint x="840" y="420" as="targetPoint" />
          </mxGeometry>
        </mxCell>
        <mxCell id="Ek8R2auzuuWv3KdGHOXG-69" value="&lt;font style=&quot;font-size: 10px;&quot;&gt;Start 2.2&lt;/font&gt;" style="ellipse;whiteSpace=wrap;html=1;fillColor=#f5f5f5;strokeColor=#666666;gradientColor=#b3b3b3;" parent="1" vertex="1">
          <mxGeometry x="795" y="340" width="50" height="20" as="geometry" />
        </mxCell>
        <mxCell id="Ek8R2auzuuWv3KdGHOXG-70" value="" style="endArrow=classic;html=1;rounded=0;exitX=0.5;exitY=1;exitDx=0;exitDy=0;" parent="1" source="Ek8R2auzuuWv3KdGHOXG-69" target="Ek8R2auzuuWv3KdGHOXG-67" edge="1">
          <mxGeometry width="50" height="50" relative="1" as="geometry">
            <mxPoint x="1020" y="450" as="sourcePoint" />
            <mxPoint x="1070" y="400" as="targetPoint" />
          </mxGeometry>
        </mxCell>
        <mxCell id="Ek8R2auzuuWv3KdGHOXG-71" value="&lt;font style=&quot;font-size: 10px;&quot;&gt;End 2.2&lt;/font&gt;" style="ellipse;whiteSpace=wrap;html=1;fillColor=#f5f5f5;strokeColor=#666666;gradientColor=#b3b3b3;" parent="1" vertex="1">
          <mxGeometry x="795" y="420" width="50" height="20" as="geometry" />
        </mxCell>
        <mxCell id="Ek8R2auzuuWv3KdGHOXG-72" value="" style="shape=flexArrow;endArrow=classic;html=1;rounded=0;" parent="1" edge="1">
          <mxGeometry width="50" height="50" relative="1" as="geometry">
            <mxPoint x="680" y="389.71" as="sourcePoint" />
            <mxPoint x="710" y="389.97999999999996" as="targetPoint" />
          </mxGeometry>
        </mxCell>
        <mxCell id="Ek8R2auzuuWv3KdGHOXG-73" value="&lt;font style=&quot;font-size: 10px;&quot;&gt;Action 1.1.1&lt;/font&gt;" style="rounded=1;whiteSpace=wrap;html=1;dashed=1;fillColor=#dae8fc;gradientColor=#7ea6e0;strokeColor=#6c8ebf;" parent="1" vertex="1">
          <mxGeometry x="720" y="260" width="60" height="20" as="geometry" />
        </mxCell>
        <mxCell id="Ek8R2auzuuWv3KdGHOXG-74" value="" style="endArrow=classic;html=1;rounded=0;exitX=0.5;exitY=1;exitDx=0;exitDy=0;entryX=0.249;entryY=0.182;entryDx=0;entryDy=0;entryPerimeter=0;" parent="1" source="Ek8R2auzuuWv3KdGHOXG-73" target="Ek8R2auzuuWv3KdGHOXG-77" edge="1">
          <mxGeometry width="50" height="50" relative="1" as="geometry">
            <mxPoint x="790" y="355" as="sourcePoint" />
            <mxPoint x="760" y="300" as="targetPoint" />
          </mxGeometry>
        </mxCell>
        <mxCell id="Ek8R2auzuuWv3KdGHOXG-75" value="&lt;font style=&quot;font-size: 10px;&quot;&gt;Start 1.1&lt;/font&gt;" style="ellipse;whiteSpace=wrap;html=1;fillColor=#f5f5f5;strokeColor=#666666;gradientColor=#b3b3b3;" parent="1" vertex="1">
          <mxGeometry x="760" y="220" width="50" height="20" as="geometry" />
        </mxCell>
        <mxCell id="Ek8R2auzuuWv3KdGHOXG-76" value="" style="endArrow=classic;html=1;rounded=0;exitX=0.251;exitY=0.912;exitDx=0;exitDy=0;exitPerimeter=0;entryX=0.5;entryY=0;entryDx=0;entryDy=0;" parent="1" source="Ek8R2auzuuWv3KdGHOXG-75" target="Ek8R2auzuuWv3KdGHOXG-73" edge="1">
          <mxGeometry width="50" height="50" relative="1" as="geometry">
            <mxPoint x="940" y="330" as="sourcePoint" />
            <mxPoint x="990" y="280" as="targetPoint" />
          </mxGeometry>
        </mxCell>
        <mxCell id="Ek8R2auzuuWv3KdGHOXG-77" value="&lt;font style=&quot;font-size: 10px;&quot;&gt;End 1.1&lt;/font&gt;" style="ellipse;whiteSpace=wrap;html=1;fillColor=#f5f5f5;strokeColor=#666666;gradientColor=#b3b3b3;" parent="1" vertex="1">
          <mxGeometry x="760" y="300" width="50" height="20" as="geometry" />
        </mxCell>
        <mxCell id="Ek8R2auzuuWv3KdGHOXG-78" value="&lt;font style=&quot;font-size: 10px;&quot;&gt;Action 1.1.2&lt;/font&gt;" style="rounded=1;whiteSpace=wrap;html=1;dashed=1;fillColor=#dae8fc;gradientColor=#7ea6e0;strokeColor=#6c8ebf;" parent="1" vertex="1">
          <mxGeometry x="790" y="260" width="60" height="20" as="geometry" />
        </mxCell>
        <mxCell id="Ek8R2auzuuWv3KdGHOXG-79" value="" style="endArrow=classic;html=1;rounded=0;entryX=0.5;entryY=0;entryDx=0;entryDy=0;exitX=1;exitY=1;exitDx=0;exitDy=0;" parent="1" source="Ek8R2auzuuWv3KdGHOXG-75" target="Ek8R2auzuuWv3KdGHOXG-78" edge="1">
          <mxGeometry width="50" height="50" relative="1" as="geometry">
            <mxPoint x="870" y="220" as="sourcePoint" />
            <mxPoint x="660" y="190" as="targetPoint" />
          </mxGeometry>
        </mxCell>
        <mxCell id="Ek8R2auzuuWv3KdGHOXG-80" value="" style="endArrow=classic;html=1;rounded=0;exitX=0.5;exitY=1;exitDx=0;exitDy=0;entryX=1;entryY=0;entryDx=0;entryDy=0;" parent="1" source="Ek8R2auzuuWv3KdGHOXG-78" target="Ek8R2auzuuWv3KdGHOXG-77" edge="1">
          <mxGeometry width="50" height="50" relative="1" as="geometry">
            <mxPoint x="610" y="240" as="sourcePoint" />
            <mxPoint x="860" y="310" as="targetPoint" />
          </mxGeometry>
        </mxCell>
        <mxCell id="Ek8R2auzuuWv3KdGHOXG-81" value="" style="shape=flexArrow;endArrow=classic;html=1;rounded=0;" parent="1" edge="1">
          <mxGeometry width="50" height="50" relative="1" as="geometry">
            <mxPoint x="640" y="270" as="sourcePoint" />
            <mxPoint x="710" y="270" as="targetPoint" />
          </mxGeometry>
        </mxCell>
        <mxCell id="Ek8R2auzuuWv3KdGHOXG-82" value="&lt;font style=&quot;font-size: 10px;&quot;&gt;Action 3.1.1&lt;/font&gt;" style="rounded=1;whiteSpace=wrap;html=1;dashed=1;fillColor=#dae8fc;gradientColor=#7ea6e0;strokeColor=#6c8ebf;" parent="1" vertex="1">
          <mxGeometry x="90" y="240" width="60" height="20" as="geometry" />
        </mxCell>
        <mxCell id="Ek8R2auzuuWv3KdGHOXG-83" value="&lt;span style=&quot;font-size: 10px;&quot;&gt;Action 3.1.2&lt;/span&gt;" style="rounded=1;whiteSpace=wrap;html=1;dashed=1;fillColor=#dae8fc;gradientColor=#7ea6e0;strokeColor=#6c8ebf;" parent="1" vertex="1">
          <mxGeometry x="90" y="280" width="60" height="20" as="geometry" />
        </mxCell>
        <mxCell id="Ek8R2auzuuWv3KdGHOXG-84" value="" style="endArrow=classic;html=1;rounded=0;exitX=0.5;exitY=1;exitDx=0;exitDy=0;entryX=0.5;entryY=0;entryDx=0;entryDy=0;" parent="1" source="Ek8R2auzuuWv3KdGHOXG-82" target="Ek8R2auzuuWv3KdGHOXG-83" edge="1">
          <mxGeometry width="50" height="50" relative="1" as="geometry">
            <mxPoint x="140" y="335" as="sourcePoint" />
            <mxPoint x="210" y="255" as="targetPoint" />
          </mxGeometry>
        </mxCell>
        <mxCell id="Ek8R2auzuuWv3KdGHOXG-85" value="&lt;font style=&quot;font-size: 10px;&quot;&gt;Start 3.1&lt;/font&gt;" style="ellipse;whiteSpace=wrap;html=1;fillColor=#f5f5f5;strokeColor=#666666;gradientColor=#b3b3b3;" parent="1" vertex="1">
          <mxGeometry x="95" y="200" width="50" height="20" as="geometry" />
        </mxCell>
        <mxCell id="Ek8R2auzuuWv3KdGHOXG-86" value="" style="endArrow=classic;html=1;rounded=0;exitX=0.5;exitY=1;exitDx=0;exitDy=0;" parent="1" source="Ek8R2auzuuWv3KdGHOXG-85" target="Ek8R2auzuuWv3KdGHOXG-82" edge="1">
          <mxGeometry width="50" height="50" relative="1" as="geometry">
            <mxPoint x="290" y="310" as="sourcePoint" />
            <mxPoint x="340" y="260" as="targetPoint" />
          </mxGeometry>
        </mxCell>
        <mxCell id="Ek8R2auzuuWv3KdGHOXG-87" value="&lt;font style=&quot;font-size: 10px;&quot;&gt;End 3.1&lt;/font&gt;" style="ellipse;whiteSpace=wrap;html=1;fillColor=#f5f5f5;strokeColor=#666666;gradientColor=#b3b3b3;" parent="1" vertex="1">
          <mxGeometry x="95" y="320" width="50" height="20" as="geometry" />
        </mxCell>
        <mxCell id="Ek8R2auzuuWv3KdGHOXG-88" value="" style="endArrow=classic;html=1;rounded=0;entryX=0.5;entryY=0;entryDx=0;entryDy=0;exitX=0.5;exitY=1;exitDx=0;exitDy=0;" parent="1" source="Ek8R2auzuuWv3KdGHOXG-83" target="Ek8R2auzuuWv3KdGHOXG-87" edge="1">
          <mxGeometry width="50" height="50" relative="1" as="geometry">
            <mxPoint x="180" y="330" as="sourcePoint" />
            <mxPoint x="120" y="290" as="targetPoint" />
          </mxGeometry>
        </mxCell>
        <mxCell id="Ek8R2auzuuWv3KdGHOXG-89" value="" style="shape=flexArrow;endArrow=classic;html=1;rounded=0;" parent="1" edge="1">
          <mxGeometry width="50" height="50" relative="1" as="geometry">
            <mxPoint x="190" y="270" as="sourcePoint" />
            <mxPoint x="160" y="269.73" as="targetPoint" />
          </mxGeometry>
        </mxCell>
        <mxCell id="Ek8R2auzuuWv3KdGHOXG-90" value="&lt;font style=&quot;font-size: 10px;&quot;&gt;Action 3.2.1&lt;/font&gt;" style="rounded=1;whiteSpace=wrap;html=1;dashed=1;fillColor=#dae8fc;gradientColor=#7ea6e0;strokeColor=#6c8ebf;" parent="1" vertex="1">
          <mxGeometry x="90" y="400" width="60" height="20" as="geometry" />
        </mxCell>
        <mxCell id="Ek8R2auzuuWv3KdGHOXG-92" value="&lt;font style=&quot;font-size: 10px;&quot;&gt;Start 3.2&lt;/font&gt;" style="ellipse;whiteSpace=wrap;html=1;fillColor=#f5f5f5;strokeColor=#666666;gradientColor=#b3b3b3;" parent="1" vertex="1">
          <mxGeometry x="95" y="360" width="50" height="20" as="geometry" />
        </mxCell>
        <mxCell id="Ek8R2auzuuWv3KdGHOXG-93" value="" style="endArrow=classic;html=1;rounded=0;exitX=0.5;exitY=1;exitDx=0;exitDy=0;" parent="1" source="Ek8R2auzuuWv3KdGHOXG-92" target="Ek8R2auzuuWv3KdGHOXG-90" edge="1">
          <mxGeometry width="50" height="50" relative="1" as="geometry">
            <mxPoint x="290" y="470" as="sourcePoint" />
            <mxPoint x="340" y="420" as="targetPoint" />
          </mxGeometry>
        </mxCell>
        <mxCell id="Ek8R2auzuuWv3KdGHOXG-95" value="" style="shape=flexArrow;endArrow=classic;html=1;rounded=0;" parent="1" edge="1">
          <mxGeometry width="50" height="50" relative="1" as="geometry">
            <mxPoint x="190" y="410" as="sourcePoint" />
            <mxPoint x="160" y="409.73" as="targetPoint" />
          </mxGeometry>
        </mxCell>
        <mxCell id="mLJUAYuWEQ91I9rg2c9W-4" value="&lt;font style=&quot;font-size: 10px;&quot;&gt;End 3.2&lt;/font&gt;" style="ellipse;whiteSpace=wrap;html=1;fillColor=#f5f5f5;strokeColor=#666666;gradientColor=#b3b3b3;" vertex="1" parent="1">
          <mxGeometry x="95" y="440" width="50" height="20" as="geometry" />
        </mxCell>
        <mxCell id="mLJUAYuWEQ91I9rg2c9W-5" value="" style="endArrow=classic;html=1;rounded=0;exitX=0.5;exitY=1;exitDx=0;exitDy=0;entryX=0.5;entryY=0;entryDx=0;entryDy=0;" edge="1" parent="1" source="Ek8R2auzuuWv3KdGHOXG-90" target="mLJUAYuWEQ91I9rg2c9W-4">
          <mxGeometry width="50" height="50" relative="1" as="geometry">
            <mxPoint x="140" y="430" as="sourcePoint" />
            <mxPoint x="155" y="450" as="targetPoint" />
          </mxGeometry>
        </mxCell>
      </root>
    </mxGraphModel>
  </diagram>
</mxfile>
